<svg xmlns="http://www.w3.org/2000/svg" viewBox="0 0 1200 630" width="1200" height="630" role="img" aria-label="刀模工業">
<rect width="1200" height="630" fill="#F5F6F7"/>
<line x1="0" y1="0" x2="0" y2="630" stroke="#E2E6EA" stroke-width="1"/><line x1="40" y1="0" x2="40" y2="630" stroke="#E2E6EA" stroke-width="1"/><line x1="80" y1="0" x2="80" y2="630" stroke="#E2E6EA" stroke-width="1"/><line x1="120" y1="0" x2="120" y2="630" stroke="#E2E6EA" stroke-width="1"/><line x1="160" y1="0" x2="160" y2="630" stroke="#E2E6EA" stroke-width="1"/><line x1="200" y1="0" x2="200" y2="630" stroke="#E2E6EA" stroke-width="1"/><line x1="240" y1="0" x2="240" y2="630" stroke="#E2E6EA" stroke-width="1"/><line x1="280" y1="0" x2="280" y2="630" stroke="#E2E6EA" stroke-width="1"/><line x1="320" y1="0" x2="320" y2="630" stroke="#E2E6EA" stroke-width="1"/><line x1="360" y1="0" x2="360" y2="630" stroke="#E2E6EA" stroke-width="1"/><line x1="400" y1="0" x2="400" y2="630" stroke="#E2E6EA" stroke-width="1"/><line x1="440" y1="0" x2="440" y2="630" stroke="#E2E6EA" stroke-width="1"/><line x1="480" y1="0" x2="480" y2="630" stroke="#E2E6EA" stroke-width="1"/><line x1="520" y1="0" x2="520" y2="630" stroke="#E2E6EA" stroke-width="1"/><line x1="560" y1="0" x2="560" y2="630" stroke="#E2E6EA" stroke-width="1"/><line x1="600" y1="0" x2="600" y2="630" stroke="#E2E6EA" stroke-width="1"/><line x1="640" y1="0" x2="640" y2="630" stroke="#E2E6EA" stroke-width="1"/><line x1="680" y1="0" x2="680" y2="630" stroke="#E2E6EA" stroke-width="1"/><line x1="720" y1="0" x2="720" y2="630" stroke="#E2E6EA" stroke-width="1"/><line x1="760" y1="0" x2="760" y2="630" stroke="#E2E6EA" stroke-width="1"/><line x1="800" y1="0" x2="800" y2="630" stroke="#E2E6EA" stroke-width="1"/><line x1="840" y1="0" x2="840" y2="630" stroke="#E2E6EA" stroke-width="1"/><line x1="880" y1="0" x2="880" y2="630" stroke="#E2E6EA" stroke-width="1"/><line x1="920" y1="0" x2="920" y2="630" stroke="#E2E6EA" stroke-width="1"/><line x1="960" y1="0" x2="960" y2="630" stroke="#E2E6EA" stroke-width="1"/><line x1="1000" y1="0" x2="1000" y2="630" stroke="#E2E6EA" stroke-width="1"/><line x1="1040" y1="0" x2="1040" y2="630" stroke="#E2E6EA" stroke-width="1"/><line x1="1080" y1="0" x2="1080" y2="630" stroke="#E2E6EA" stroke-width="1"/><line x1="1120" y1="0" x2="1120" y2="630" stroke="#E2E6EA" stroke-width="1"/><line x1="1160" y1="0" x2="1160" y2="630" stroke="#E2E6EA" stroke-width="1"/><line x1="0" y1="0" x2="1200" y2="0" stroke="#E2E6EA" stroke-width="1"/><line x1="0" y1="40" x2="1200" y2="40" stroke="#E2E6EA" stroke-width="1"/><line x1="0" y1="80" x2="1200" y2="80" stroke="#E2E6EA" stroke-width="1"/><line x1="0" y1="120" x2="1200" y2="120" stroke="#E2E6EA" stroke-width="1"/><line x1="0" y1="160" x2="1200" y2="160" stroke="#E2E6EA" stroke-width="1"/><line x1="0" y1="200" x2="1200" y2="200" stroke="#E2E6EA" stroke-width="1"/><line x1="0" y1="240" x2="1200" y2="240" stroke="#E2E6EA" stroke-width="1"/><line x1="0" y1="280" x2="1200" y2="280" stroke="#E2E6EA" stroke-width="1"/><line x1="0" y1="320" x2="1200" y2="320" stroke="#E2E6EA" stroke-width="1"/><line x1="0" y1="360" x2="1200" y2="360" stroke="#E2E6EA" stroke-width="1"/><line x1="0" y1="400" x2="1200" y2="400" stroke="#E2E6EA" stroke-width="1"/><line x1="0" y1="440" x2="1200" y2="440" stroke="#E2E6EA" stroke-width="1"/><line x1="0" y1="480" x2="1200" y2="480" stroke="#E2E6EA" stroke-width="1"/><line x1="0" y1="520" x2="1200" y2="520" stroke="#E2E6EA" stroke-width="1"/><line x1="0" y1="560" x2="1200" y2="560" stroke="#E2E6EA" stroke-width="1"/><line x1="0" y1="600" x2="1200" y2="600" stroke="#E2E6EA" stroke-width="1"/>
<rect x="0.5" y="0.5" width="1199" height="629" fill="none" stroke="#D9DDE1" stroke-width="1"/>
<line x1="570.0" y1="269.0" x2="630.0" y2="269.0" stroke="#E8590C" stroke-width="3"/>
<text x="600.0" y="315.0" font-family="sans-serif" font-size="17" font-weight="600" fill="#2B3A4A" text-anchor="middle">刀模工業</text>
<text x="600.0" y="341.0" font-family="sans-serif" font-size="13" fill="#8C97A1" text-anchor="middle">Die-Cutting Mold Solutions</text>
</svg>